<svg xmlns="http://www.w3.org/2000/svg"  viewBox="0 0 64 64" width="40px" height="40px"><radialGradient id="oh5rQBLtPGcKsWd6BdZgSa" cx="32" cy="31.5" r="31.259" gradientUnits="userSpaceOnUse"><stop offset="0" stop-color="#f7e9c2"/><stop offset=".644" stop-color="#fff3db"/><stop offset="1" stop-color="#fff5e0"/></radialGradient><path fill="url(#oh5rQBLtPGcKsWd6BdZgSa)" d="M55,43l-2.983,0c-1.308,0-2.499-0.941-2.629-2.243C49.238,39.261,50.409,38,51.875,38 l6.755,0c1.451,0,2.789-0.972,3.071-2.395C62.081,33.693,60.609,32,58.761,32H50v-8h11c1.657,0,3-1.343,3-3v0c0-1.657-1.343-3-3-3 l-5,0v-4l2.118,0c1.308,0,2.5-0.942,2.63-2.243C60.898,10.26,59.727,9,58.261,9H44.5C43.672,9,43,8.328,43,7.5S43.672,6,44.5,6 l3.857,0c1.308,0,2.5-0.942,2.63-2.243C51.136,2.26,49.966,1,48.5,1L15.643,1c-1.308,0-2.5,0.942-2.63,2.243 C12.864,4.74,14.034,6,15.5,6l3.75,0c1.308,0,2.499,0.941,2.63,2.242C22.03,9.739,20.859,11,19.393,11L6.126,11 c-1.457,0-2.803,0.975-3.083,2.405C2.669,15.312,4.14,17,5.984,17l1.766,0c2.089,0,3.955,1.527,4.153,3.607 C12.131,22.993,10.261,25,7.922,25L7,25v8h1.5c3.038,0,5.5,2.462,5.5,5.5v0c0,3.038-2.462,5.5-5.5,5.5H6.131 c-1.451,0-2.789,0.972-3.071,2.395C2.681,48.307,4.152,50,6,50c0.603,0,2,0,3.5,0s2,1.498,2,2c0,1.105-0.895,2-2,2l-5.31,0 c-2.086,0-3.959,1.514-4.169,3.59C-0.22,59.972,1.665,62,4,62h55.5c2.485,0,4.5-2.015,4.5-4.5v0c0-2.485-2.015-4.5-4.5-4.5H55V43z"/><linearGradient id="oh5rQBLtPGcKsWd6BdZgSb" x1="36" x2="36" y1="22" y2="8" gradientUnits="userSpaceOnUse"><stop offset="0" stop-color="#56aeee"/><stop offset="1" stop-color="#3694d9"/></linearGradient><path fill="url(#oh5rQBLtPGcKsWd6BdZgSb)" d="M16,10v12h40V10c0-1.105-0.895-2-2-2H18 C16.895,8,16,8.895,16,10z"/><linearGradient id="oh5rQBLtPGcKsWd6BdZgSc" x1="36" x2="36" y1="34" y2="20" gradientUnits="userSpaceOnUse"><stop offset="0" stop-color="#2c7fd9"/><stop offset="1" stop-color="#2a78cc"/></linearGradient><path fill="url(#oh5rQBLtPGcKsWd6BdZgSc)" d="M56,20H16v14h40V20z"/><linearGradient id="oh5rQBLtPGcKsWd6BdZgSd" x1="36" x2="36" y1="46" y2="32" gradientUnits="userSpaceOnUse"><stop offset="0" stop-color="#195ec4"/><stop offset="1" stop-color="#1759ba"/></linearGradient><path fill="url(#oh5rQBLtPGcKsWd6BdZgSd)" d="M16,32v14h40V32H16z"/><linearGradient id="oh5rQBLtPGcKsWd6BdZgSe" x1="36" x2="36" y1="56" y2="44" gradientUnits="userSpaceOnUse"><stop offset="0" stop-color="#1348a8"/><stop offset="1" stop-color="#104196"/></linearGradient><path fill="url(#oh5rQBLtPGcKsWd6BdZgSe)" d="M18,56h36c1.105,0,2-0.895,2-2V44H16v10 C16,55.105,16.895,56,18,56z"/><linearGradient id="oh5rQBLtPGcKsWd6BdZgSf" x1="-402.119" x2="-400.786" y1="-347.143" y2="-347.143" gradientTransform="matrix(0 -14 -14 0 -4836 -5606)" gradientUnits="userSpaceOnUse"><stop offset="0" stop-color="#4d9cd6"/><stop offset="1" stop-color="#2a79ce"/><stop offset="1" stop-color="#3085c3"/></linearGradient><path fill="url(#oh5rQBLtPGcKsWd6BdZgSf)" d="M16,17l0,4h16l0-2c0-1.105-0.895-2-2-2H16 z"/><linearGradient id="oh5rQBLtPGcKsWd6BdZgSg" x1="-402.083" x2="-401" y1="-347.143" y2="-347.143" gradientTransform="matrix(0 -14 -14 0 -4836 -5594)" gradientUnits="userSpaceOnUse"><stop offset="0" stop-color="#0b3463"/><stop offset="0" stop-color="#1f5999"/><stop offset="1" stop-color="#1858ba"/></linearGradient><rect width="16" height="13" x="16" y="20" fill="url(#oh5rQBLtPGcKsWd6BdZgSg)"/><linearGradient id="oh5rQBLtPGcKsWd6BdZgSh" x1="-402.083" x2="-401" y1="-347.143" y2="-347.143" gradientTransform="matrix(0 -14 -14 0 -4836 -5582)" gradientUnits="userSpaceOnUse"><stop offset="0" stop-color="#12458f"/><stop offset="1" stop-color="#134897"/><stop offset="1" stop-color="#0b2a59"/></linearGradient><rect width="16" height="13" x="16" y="32" fill="url(#oh5rQBLtPGcKsWd6BdZgSh)"/><linearGradient id="oh5rQBLtPGcKsWd6BdZgSi" x1="-399" x2="-398" y1="-349" y2="-349" gradientTransform="matrix(0 -12 -12 0 -4164 -4732)" gradientUnits="userSpaceOnUse"><stop offset="0" stop-color="#114197"/><stop offset="0" stop-color="#114197"/><stop offset="1" stop-color="#0d367c"/></linearGradient><path fill="url(#oh5rQBLtPGcKsWd6BdZgSi)" d="M32,44l-16,0v5h14c1.105,0,2-0.895,2-2V44"/><linearGradient id="oh5rQBLtPGcKsWd6BdZgSj" x1="17" x2="17" y1="-891.11" y2="-865.11" gradientTransform="translate(0 910.11)" gradientUnits="userSpaceOnUse"><stop offset="0" stop-color="#2368c4"/><stop offset="1" stop-color="#1146ac"/></linearGradient><path fill="url(#oh5rQBLtPGcKsWd6BdZgSj)" d="M6,19h22c1.105,0,2,0.895,2,2v22 c0,1.105-0.895,2-2,2H6c-1.105,0-2-0.895-2-2V21C4,19.895,4.895,19,6,19z"/><path fill="#fff" d="M26.132,25h-1.868c-0.239,0-0.444,0.169-0.49,0.403l-2.088,10.563l-2.639-10.583 c-0.056-0.223-0.256-0.379-0.485-0.379h-2.206c-0.232,0-0.433,0.159-0.487,0.385l-2.517,10.627l-2.26-10.616 c-0.049-0.231-0.253-0.396-0.489-0.396H8.68c-0.227,0-0.393,0.212-0.34,0.432l3.184,13.178c0.054,0.224,0.255,0.383,0.486,0.383 h2.444c0.233,0,0.435-0.16,0.487-0.387l2.425-10.456l2.574,10.465C19.994,38.843,20.195,39,20.425,39h2.395 c0.231,0,0.432-0.159,0.486-0.383l3.167-13.185C26.526,25.212,26.359,25,26.132,25z"/></svg>